<svg width="95" height="41" viewBox="0 0 95 41" fill="none" xmlns="http://www.w3.org/2000/svg">
<path d="M25.2567 29.0353H28.6243C29.5542 29.0353 30.308 28.2814 30.308 27.3515V19.843C30.308 19.3478 30.09 18.8776 29.7119 18.5577L21.293 11.434C20.6652 10.9028 19.7455 10.9028 19.1177 11.434L10.6988 18.5577C10.3207 18.8776 10.1026 19.3478 10.1026 19.8431V27.3515C10.1026 28.2814 10.8565 29.0353 11.7864 29.0353H15.154" stroke="#E0E0E0" stroke-width="2.3573" stroke-linecap="round" stroke-linejoin="round"/>
<path d="M52.9548 26.6152H51.8028V15.1592H52.9548V20.2632H59.1468V15.1592H60.2828V26.6152H59.1468V21.3352H52.9548V26.6152ZM62.7801 22.7432C62.7801 20.3752 64.4441 18.6632 66.7161 18.6632C68.9881 18.6632 70.6521 20.3752 70.6521 22.7432C70.6521 25.0952 68.9881 26.8072 66.7161 26.8072C64.4441 26.8072 62.7801 25.0952 62.7801 22.7432ZM63.9001 22.7272C63.9001 24.5512 65.0521 25.8152 66.7161 25.8152C68.3641 25.8152 69.5321 24.5512 69.5321 22.7272C69.5321 20.9352 68.3641 19.6552 66.7161 19.6552C65.0521 19.6552 63.9001 20.9352 63.9001 22.7272ZM74.0018 26.6152H72.8978V18.8712H73.8578L73.9858 19.9752C74.3698 19.1592 75.2338 18.6632 76.3218 18.6632C77.5378 18.6632 78.4498 19.3032 78.8178 20.3112C79.1698 19.3032 80.1138 18.6632 81.3618 18.6632C83.0418 18.6632 84.1458 19.7512 84.1458 21.5432V26.6152H83.0738V21.7672C83.0738 20.4392 82.3378 19.6552 81.1538 19.6552C79.8578 19.6552 79.0898 20.6312 79.0898 21.8312V26.6152H78.0018V21.7512C78.0018 20.4392 77.2498 19.6712 76.0818 19.6712C74.7858 19.6712 74.0018 20.6312 74.0018 21.8152V26.6152ZM90.0946 26.8072C87.8226 26.8072 86.3026 25.1752 86.3026 22.7432C86.3026 20.3272 87.8066 18.6632 90.0146 18.6632C92.1106 18.6632 93.5346 20.1512 93.5346 22.3432V22.8872H87.3746C87.4546 24.7752 88.4466 25.8632 90.1106 25.8632C91.3746 25.8632 92.1906 25.3192 92.4786 24.2952H93.5346C93.1186 25.9272 91.9186 26.8072 90.0946 26.8072ZM90.0146 19.6072C88.5586 19.6072 87.5986 20.5672 87.4066 22.0872H92.4306C92.4306 20.5992 91.4706 19.6072 90.0146 19.6072Z" fill="#E0E0E0"/>
</svg>
